# xmcd CD database file
#
# Track frame offsets:
#	150
#	13743
#	22809
#	39837
#	47390
#	57419
#	65395
#	76546
#	87306
#	99402
#	111710
#	123417
#	135416
#
# Disc length: 2301 seconds
#
# Revision: 3
# Processed by: cddbd v1.5.2PL0 Copyright (c) Steve Scherf et al.
# Submitted via: CDex 1.51
#
DISCID=9808fb0d
DTITLE=Clarence "Gatemouth" Brown - Okie Dokie
DYEAR=2000
DGENRE=Blues
TTITLE0=It's Alright
TTITLE1=Milk Cow Blues
TTITLE2=Stop What You're Doing To Me
TTITLE3=Okie Dokie Stomp
TTITLE4=Playboy Blues
TTITLE5=Hot Times Tonight
TTITLE6=Summertime
TTITLE7=The Grass Is Always Greener
TTITLE8=Left Over Blues
TTITLE9=The Cricket
TTITLE10=When My Blue Moon Turns To Gold
TTITLE11=Want You For My Girlfriend
TTITLE12=Rivers Invitation
EXTD=YEAR: 2000
EXTT0=
EXTT1=
EXTT2=
EXTT3=
EXTT4=
EXTT5=
EXTT6=
EXTT7=
EXTT8=
EXTT9=
EXTT10=
EXTT11=
EXTT12=
PLAYORDER=
